<!-- Generator: Adobe Illustrator 21.0.0, SVG Export Plug-In  -->
<svg version="1.1"
	 xmlns="http://www.w3.org/2000/svg" xmlns:xlink="http://www.w3.org/1999/xlink" xmlns:a="http://ns.adobe.com/AdobeSVGViewerExtensions/3.0/"
	 x="0px" y="0px" width="169.9px" height="48.1px" viewBox="0 0 169.9 48.1" style="enable-background:new 0 0 169.9 48.1;"
	 xml:space="preserve">
<style type="text/css">
	.st0{fill:none;}
	.st1{fill:#444444;}
	.st2{fill:#769CCD;}
	.st3{fill:url(#SVGID_1_);}
	.st4{fill:url(#SVGID_2_);}
	.st5{opacity:0.9;fill:url(#SVGID_3_);enable-background:new    ;}
	.st6{fill:url(#SVGID_4_);}
	.st7{fill:#404040;}
	.st8{fill:url(#SVGID_5_);}
	.st9{fill:url(#SVGID_6_);}
	.st10{opacity:0.9;fill:url(#SVGID_7_);enable-background:new    ;}
	.st11{fill:url(#SVGID_8_);}
</style>
<defs>
</defs>
<g>
	<rect class="st0" width="160" height="48.1"/>
	<g>
		<g>
			<g>
				<path class="st1" d="M46.3,18.9h15.6v2.3h-6.5v21.4h-2.6V21.3h-6.5C46.3,21.3,46.3,18.9,46.3,18.9z"/>
				<path class="st1" d="M64.6,18.9h13.1v2.3H67.2v8.1h9v2.3h-9v8.6h10.5v2.3H64.6V18.9z"/>
				<path class="st1" d="M88.7,18.6c2.3,0,4.3,0.7,6.3,2l-1.3,2c-1.7-1.1-3.3-1.6-5-1.6c-2.3,0-3.9,0.9-4.7,2.8
					c-0.4,0.8-0.6,1.8-0.7,2.9s-0.2,2.5-0.2,4.1c0,1.6,0.1,3,0.2,4.1s0.3,2.1,0.7,2.9c0.8,1.9,2.4,2.9,4.7,2.9c2.1,0,3.9-0.7,5.4-2
					l1.5,1.9c-2,1.6-4.3,2.4-6.9,2.4c-1.7,0-3.2-0.4-4.4-1.2c-1.2-0.8-2.1-1.8-2.7-3.2c-0.3-0.7-0.5-1.5-0.7-2.5s-0.3-1.8-0.3-2.6
					c0-0.7,0-1.7,0-2.9c0-1.8,0.1-3.3,0.2-4.6c0.1-1.3,0.4-2.4,0.8-3.3c0.6-1.3,1.5-2.4,2.8-3.2C85.5,19,87,18.6,88.7,18.6z"/>
				<path class="st1" d="M98.6,18.9h2.6v10.5h10.2V18.9h2.6v23.7h-2.6V31.7h-10.2v10.9h-2.6V18.9z"/>
				<path class="st2" d="M124.7,42.7h-2.6V22l-3.3,1.7l-1.1-2.1l5-2.6h2V42.7z"/>
				<path class="st2" d="M131.3,20.8c1.3-1.5,3-2.2,5.1-2.2s3.8,0.7,5.1,2.2s1.9,3.3,1.9,5.5c0,1-0.1,2-0.4,2.8
					c-0.3,0.8-0.7,1.8-1.2,2.8l-5.5,10.8h-2.9l4.8-9.2c-0.7,0.3-1.5,0.4-2.3,0.4c-1.3,0-2.4-0.4-3.5-1.1c-1-0.7-1.8-1.6-2.3-2.8
					c-0.5-1.1-0.8-2.4-0.8-3.7C129.4,24.1,130,22.3,131.3,20.8z M139.5,22.4c-0.8-0.9-1.9-1.4-3.1-1.4c-1.3,0-2.3,0.5-3.1,1.4
					c-0.8,1-1.2,2.3-1.2,3.9s0.4,3,1.2,3.9c0.8,1,1.9,1.4,3.1,1.4c1.3,0,2.3-0.5,3.1-1.4s1.2-2.3,1.2-3.9S140.3,23.3,139.5,22.4z"/>
				<path class="st2" d="M153.4,27.7c1.3,0,2.4,0.3,3.5,1c1,0.7,1.8,1.6,2.3,2.7c0.5,1.1,0.8,2.4,0.8,3.8c0,2.2-0.7,4-2,5.5
					s-3,2.2-5.1,2.2c-1.4,0-2.7-0.3-3.7-1c-1.1-0.7-1.9-1.6-2.5-2.8s-0.9-2.5-0.9-3.9c0-0.8,0.1-1.5,0.3-2.3s0.4-1.4,0.6-1.8
					c0.2-0.4,0.5-1.1,0.9-1.8l5.4-10.4h2.8l-4.9,9.3C151.7,27.9,152.5,27.7,153.4,27.7z M156.1,31.3c-0.8-0.9-1.9-1.4-3.2-1.4
					s-2.4,0.5-3.2,1.4c-0.8,1-1.3,2.3-1.3,3.9c0,1.7,0.4,3,1.3,3.9c0.8,0.9,1.9,1.4,3.2,1.4s2.4-0.5,3.2-1.4s1.3-2.3,1.3-3.9
					C157.4,33.6,157,32.3,156.1,31.3z"/>
			</g>
		</g>
		<g>
			
				<linearGradient id="SVGID_1_" gradientUnits="userSpaceOnUse" x1="6785.2808" y1="406.2816" x2="6785.5718" y2="386.4785" gradientTransform="matrix(-1 0 0 1 6806.8496 -359.8613)">
				<stop  offset="0" style="stop-color:#769CCD"/>
				<stop  offset="1" style="stop-color:#444444"/>
			</linearGradient>
			<path class="st3" d="M13.4,41.8v-4.7h2.4v2.2h9.9v-9c-0.8-0.4-1.3-1.2-1.3-2.2c0-1.4,1.1-2.5,2.5-2.5s2.5,1.1,2.5,2.5
				c0,0.9-0.5,1.8-1.3,2.2v11.4H13.4V41.8z"/>
			
				<linearGradient id="SVGID_2_" gradientUnits="userSpaceOnUse" x1="6791.9746" y1="406.7427" x2="6792.2881" y2="385.3404" gradientTransform="matrix(-1 0 0 1 6806.8496 -359.8613)">
				<stop  offset="0" style="stop-color:#769CCD"/>
				<stop  offset="1" style="stop-color:#444444"/>
			</linearGradient>
			<path class="st4" d="M12.1,28.1c0-1.4,1.1-2.5,2.5-2.5s2.5,1.1,2.5,2.5c0,0.9-0.5,1.8-1.3,2.2v4.4h-2.4v-4.4
				c-0.6-0.3-1.1-1-1.2-1.7C12.1,28.4,12.1,28.3,12.1,28.1z"/>
			
				<linearGradient id="SVGID_3_" gradientUnits="userSpaceOnUse" x1="14.6" y1="10.0942" x2="14.6" y2="18.1493" gradientTransform="matrix(1 0 0 -1 0 50)">
				<stop  offset="0.1" style="stop-color:#000000;stop-opacity:0"/>
				<stop  offset="0.5" style="stop-color:#000000"/>
				<stop  offset="0.9" style="stop-color:#000000;stop-opacity:0"/>
			</linearGradient>
			<rect x="13.4" y="31.9" class="st5" width="2.4" height="8.1"/>
			
				<linearGradient id="SVGID_4_" gradientUnits="userSpaceOnUse" x1="6790.5635" y1="368.9287" x2="6790.4219" y2="405.0846" gradientTransform="matrix(-1 0 0 1 6806.8496 -359.8613)">
				<stop  offset="0" style="stop-color:#769CCD"/>
				<stop  offset="1" style="stop-color:#444444"/>
			</linearGradient>
			<path class="st6" d="M0,37.2V13.5h32.7v32.7H10.4C9.9,47.3,8.9,48,7.6,48c-1.7,0-3-1.4-3-3s1.4-3,3-3c1.2,0,2.3,0.7,2.8,1.8h19.9
				V16H2.4v18.8h18.8V22.3H18l0,0H8.8v3c0.9,0.4,1.6,1.3,1.8,2.3c0,0.2,0,0.3,0,0.5c0,1.7-1.4,3-3,3s-3-1.4-3-3
				c0-1.2,0.7-2.3,1.8-2.8v-5.5H18l0,0h5.7v17.3H0V37.2z"/>
		</g>
	</g>
</g>
<g>
	<path class="st7" d="M161.7,15.8h-1.8V21h-1.5v-5.2h-1.8v-1.2h5.1V15.8z"/>
	<path class="st7" d="M169.9,21h-1.5v-3.9c0-0.4,0-0.9,0-1.3l0,0c-0.1,0.4-0.1,0.7-0.2,0.9l-1.5,4.4h-1.2l-1.6-4.4
		c0-0.1-0.1-0.4-0.2-0.9l0,0c0,0.6,0,1.2,0,1.7V21h-1.3v-6.4h2.1l1.3,3.8c0.1,0.4,0.1,0.6,0.2,1l0,0c0.1-0.4,0.1-0.6,0.2-1l1.3-3.8
		h2.1V21H169.9z"/>
</g>
</svg>
